<svg width="248" height="78" viewBox="0 0 248 78" fill="none" xmlns="http://www.w3.org/2000/svg">
<path d="M0.0177778 14.2269C0.0169701 27.5374 0.0242392 40.8276 8.96571e-06 54.1365C-0.00160638 54.819 0.21485 55.1444 0.815759 55.4336C3.00374 56.4569 5.02939 57.6385 7.2408 58.6368V34.342C8.31581 34.8872 9.28421 35.4138 10.2833 35.8718C10.8487 36.1302 11.1693 36.5042 11.3906 37.0865C13.8298 43.5043 16.2875 49.9148 18.7703 56.3156C18.9101 56.6766 19.259 57.0384 19.6047 57.2242C21.6561 58.2984 23.6858 59.375 25.785 60.3612C28.4333 56.1613 31.0583 51.9977 33.6937 47.818C34.8406 48.4004 35.8744 48.9617 36.9405 49.452C37.4413 49.6822 37.5729 49.9842 37.5721 50.5149C37.5544 58.1732 37.5649 65.8316 37.5487 73.4899C37.5479 73.9721 37.6933 74.2273 38.1262 74.4414C40.3521 75.535 42.4852 76.6673 44.716 77.773C44.8121 64.3891 44.716 51.0116 44.7612 37.6268C44.7612 37.1446 44.6118 36.8983 44.1773 36.6794C40.269 34.7507 36.4406 32.6693 32.5096 30.7907C29.5455 35.186 26.6112 39.5378 23.6656 43.9065C22.8539 43.4962 22.1254 43.0972 21.3702 42.7564C20.8735 42.5318 20.5884 42.1966 20.3865 41.6886C17.6242 34.7289 14.8483 27.7748 12.0481 20.8305C11.9019 20.4686 11.5618 20.0979 11.2154 19.9178C7.47502 18.0028 3.80496 16.0579 0.0177778 14.2269Z" fill="white"/>
<path d="M76.8193 16.0279C73.3294 14.5911 69.8265 13.3045 66.3317 11.8918C65.877 11.7109 65.5272 11.7448 65.1032 11.9581C59.6595 14.6759 54.2594 17.4325 48.789 20.1002C48.4199 14.8423 50.9051 8.09013 45.6577 4.63006C35.3001 -2.13986 13.7102 -1.80386 5.12865 7.75333C1.64354 12.202 7.45879 16.4471 11.3655 17.7798C11.5997 17.871 11.9575 17.8097 12.1974 17.6934C14.2432 16.6612 16.3173 15.717 18.3179 14.5984C13.7457 12.1875 22.1003 8.17655 24.239 7.37857C28.4494 5.65015 37.3774 3.55101 38.4516 9.76363C38.4088 15.6693 37.5349 21.5799 37.1585 27.4807C37.1173 27.9605 37.2498 28.1656 37.6964 28.3353C40.2164 29.2948 42.7274 30.2785 45.2312 31.28C45.7005 31.4682 46.0736 31.4472 46.53 31.2186C56.617 26.1295 66.7476 21.1502 76.8193 16.0279Z" fill="white"/>
<path d="M0.0177778 14.2269C3.80496 16.0571 7.47583 18.0028 11.2145 19.9162C11.561 20.0963 11.9019 20.467 12.0473 20.8288C14.8475 27.7732 17.6234 34.7273 20.3857 41.687C20.5876 42.195 20.8719 42.531 21.3694 42.7547C22.1238 43.0948 22.8523 43.4938 23.6648 43.9049C26.6104 39.5362 29.5447 35.1844 32.5088 30.7891C36.4398 32.6677 40.269 34.7491 44.1765 36.6778C44.6118 36.8967 44.7612 37.143 44.7604 37.6252C44.716 51.01 44.8113 64.3874 44.716 77.7714C42.486 76.6665 40.3513 75.5333 38.1262 74.4397C37.6933 74.2257 37.5479 73.9705 37.5487 73.4883C37.5649 65.83 37.5544 58.1716 37.5721 50.5132C37.5738 49.9826 37.4413 49.6805 36.9405 49.4503C35.8744 48.9601 34.8406 48.3996 33.6937 47.8164C31.0583 51.9961 28.4333 56.1589 25.785 60.3596C23.6858 59.3734 21.6561 58.296 19.6047 57.2226C19.259 57.0376 18.9109 56.675 18.7703 56.3139C16.2875 49.9131 13.8298 43.5026 11.3906 37.0849C11.1693 36.5025 10.8487 36.1286 10.2833 35.8701C9.2834 35.413 8.31581 34.8856 7.2408 34.3404V58.6352C5.0302 57.6377 3.00374 56.4545 0.815759 55.432C0.21485 55.1444 -0.00160638 54.819 8.96571e-06 54.1365C0.0242392 40.8276 0.0169701 27.5382 0.0177778 14.2269Z" fill="#CEF0BE"/>
<path d="M78.6699 39.5532C82.0702 39.6413 84.7161 41.7808 85.0344 45.5098C85.4043 63.5613 62.9639 67.7435 50.5403 75.4487C50.5403 62.0889 50.5443 48.7438 50.5273 35.3848C50.5273 34.8179 50.7099 34.5408 51.2122 34.2864C58.3068 30.6931 65.3885 27.0755 72.4734 23.4644C74.0274 22.6729 75.6468 22.1027 77.4018 21.9654C87.3782 21.8394 83.4392 35.1959 78.6707 39.5524L78.6699 39.5532ZM57.7334 61.0656C63.9573 57.7606 70.7151 55.1946 76.305 50.8461C76.9924 50.2977 77.4487 49.5207 77.569 48.6065C77.9971 45.4929 74.2463 47.2504 72.7383 47.911C67.8487 50.3373 62.9857 52.8185 58.1211 55.2948C57.9515 55.3812 57.752 55.6195 57.7496 55.7907C57.7221 57.5167 57.7326 59.2435 57.7326 61.0656H57.7334ZM57.7382 46.2812C63.4202 43.3323 69.4543 40.8722 74.6751 37.1375C75.9957 36.2458 77.3389 33.0151 74.5395 33.5749C73.6276 33.7905 72.7125 34.0893 71.8757 34.5061C67.2534 37.0236 62.0674 39.0186 57.7544 41.8785C57.7269 43.3202 57.7374 44.7619 57.7374 46.2812H57.7382Z" fill="#4FC976"/>
<path d="M76.8193 16.0281C66.7484 21.1503 56.617 26.1288 46.53 31.2188C46.0736 31.4473 45.7005 31.4683 45.2312 31.2802C42.7274 30.2778 40.2164 29.2949 37.6964 28.3354C37.2498 28.1658 37.1173 27.9606 37.1577 27.4809C37.5349 21.58 38.4088 15.6686 38.4516 9.76375C37.3701 3.54709 28.4591 5.65673 24.2398 7.37869C22.0761 8.18152 13.7586 12.194 18.318 14.5985C16.3174 15.7179 14.2432 16.6621 12.1974 17.6935C11.9583 17.8098 11.5997 17.8712 11.3655 17.7799C7.45718 16.4497 1.64274 12.2005 5.12866 7.75426C13.7086 -1.80132 35.2864 -2.14216 45.6577 4.63018C50.9076 8.09267 48.4159 14.8408 48.789 20.1003C54.2594 17.4318 59.6603 14.6752 65.1032 11.9582C65.5272 11.745 65.877 11.711 66.3317 11.892C69.8265 13.3046 73.3286 14.5912 76.8193 16.0281Z" fill="#CEF0BE"/>
<path d="M114.251 48.6233V54.3941H95.2778V28.3677H114.062V34.1385H99.0117V38.7027H112.817V43.9081H99.0117V48.6233H114.25H114.251Z" fill="#131011"/>
<path d="M118.022 28.3677H123.265L135.26 45.0776H136.807V28.3677H140.579V54.3941H135.298L123.341 37.6842H121.757V54.3941H118.024V28.3677H118.022Z" fill="#131011"/>
<path d="M164.492 48.6233V54.3941H145.519V28.3677H164.303V34.1385H149.252V38.7027H163.058V43.9081H149.252V48.6233H164.491H164.492Z" fill="#131011"/>
<path d="M179.428 46.2463H171.997V54.3933H168.263V28.3677H180.183C185.425 28.3677 189.424 32.2154 189.424 37.307C189.424 41.1547 187.161 44.2853 183.766 45.605L189.763 54.3933H185.011L179.428 46.2463H179.428ZM171.997 40.4755H180.069C183.577 40.4755 185.501 39.2688 185.501 37.307C185.501 35.3452 183.577 34.1385 180.069 34.1385H171.997V40.4755Z" fill="#131011"/>
<path d="M218.919 39.306V54.3933H215.939V47.3019C213.94 52.0543 210.508 54.8456 205.453 54.8456C197.607 54.8456 191.686 49.0368 191.686 41.3801C191.686 33.7233 197.607 27.9146 205.453 27.9146C211.752 27.9146 216.92 31.6484 218.315 36.8159H213.751C212.053 35.0051 209.036 33.7984 205.453 33.7984C199.833 33.7984 195.608 37.0421 195.608 41.3801C195.608 45.7181 199.833 48.9617 205.453 48.9617C209.941 48.9617 213.638 47.3019 215.223 44.8506H205.717V39.306H218.919Z" fill="#131011"/>
<path d="M228.65 46.6615L218.315 28.3677H222.728L229.102 39.0047H231.705L238.079 28.3677H242.756L232.421 46.6615V54.3941H228.649V46.6615H228.65Z" fill="#131011"/>
<path d="M239.626 51.1126C239.626 49.0377 241.437 47.4159 243.813 47.4159C246.19 47.4159 248 49.0377 248 51.1126C248 53.1875 246.228 54.7714 243.813 54.7714C241.399 54.7714 239.626 53.1875 239.626 51.1126Z" fill="#131011"/>
</svg>
