<svg width="248" height="78" viewBox="0 0 248 78" fill="none" xmlns="http://www.w3.org/2000/svg">
<path d="M0.0177778 14.2271C0.0169701 27.5375 0.0242392 40.8278 8.96571e-06 54.1366C-0.00160638 54.8191 0.21485 55.1446 0.815759 55.4337C3.00374 56.457 5.02939 57.6387 7.2408 58.6369V34.3421C8.31581 34.8873 9.28421 35.4139 10.2833 35.8719C10.8487 36.1303 11.1693 36.5043 11.3906 37.0866C13.8298 43.5044 16.2875 49.9149 18.7703 56.3157C18.9101 56.6767 19.259 57.0386 19.6047 57.2243C21.6561 58.2985 23.6858 59.3751 25.785 60.3613C28.4333 56.1614 31.0583 51.9979 33.6937 47.8182C34.8406 48.4005 35.8744 48.9618 36.9405 49.4521C37.4413 49.6823 37.5729 49.9843 37.5721 50.515C37.5544 58.1733 37.5649 65.8317 37.5487 73.49C37.5479 73.9722 37.6933 74.2275 38.1262 74.4415C40.3521 75.5351 42.4852 76.6674 44.716 77.7731C44.8121 64.3892 44.716 51.0117 44.7612 37.6269C44.7612 37.1448 44.6118 36.8984 44.1773 36.6795C40.269 34.7508 36.4406 32.6695 32.5096 30.7908C29.5455 35.1862 26.6112 39.5379 23.6656 43.9066C22.8539 43.4963 22.1254 43.0973 21.3702 42.7565C20.8735 42.5319 20.5884 42.1968 20.3865 41.6887C17.6242 34.729 14.8483 27.775 12.0481 20.8306C11.9019 20.4687 11.5618 20.098 11.2154 19.9179C7.47502 18.0029 3.80496 16.058 0.0177778 14.2271Z" fill="white"/>
<path d="M76.8193 16.0279C73.3294 14.5911 69.8265 13.3045 66.3317 11.8918C65.877 11.7109 65.5272 11.7448 65.1032 11.9581C59.6595 14.6759 54.2594 17.4325 48.789 20.1002C48.4199 14.8423 50.9051 8.09013 45.6577 4.63006C35.3001 -2.13986 13.7102 -1.80386 5.12865 7.75333C1.64354 12.202 7.45879 16.4471 11.3655 17.7798C11.5997 17.871 11.9575 17.8097 12.1974 17.6934C14.2432 16.6612 16.3173 15.717 18.3179 14.5984C13.7457 12.1875 22.1003 8.17655 24.239 7.37857C28.4494 5.65015 37.3774 3.55101 38.4516 9.76363C38.4088 15.6693 37.5349 21.5799 37.1585 27.4807C37.1173 27.9605 37.2498 28.1656 37.6964 28.3353C40.2164 29.2948 42.7274 30.2785 45.2312 31.28C45.7005 31.4682 46.0736 31.4472 46.53 31.2186C56.617 26.1295 66.7476 21.1502 76.8193 16.0279Z" fill="white"/>
<path d="M0.0177778 14.2271C3.80496 16.0572 7.47583 18.0029 11.2145 19.9163C11.561 20.0964 11.9019 20.4671 12.0473 20.829C14.8475 27.7733 17.6234 34.7274 20.3857 41.6871C20.5876 42.1951 20.8719 42.5311 21.3694 42.7549C22.1238 43.0949 22.8523 43.4939 23.6648 43.905C26.6104 39.5363 29.5447 35.1845 32.5088 30.7892C36.4398 32.6678 40.269 34.7492 44.1765 36.6779C44.6118 36.8968 44.7612 37.1432 44.7604 37.6253C44.716 51.0101 44.8113 64.3876 44.716 77.7715C42.486 76.6666 40.3513 75.5335 38.1262 74.4399C37.6933 74.2258 37.5479 73.9706 37.5487 73.4884C37.5649 65.8301 37.5544 58.1717 37.5721 50.5134C37.5738 49.9827 37.4413 49.6807 36.9405 49.4505C35.8744 48.9602 34.8406 48.3997 33.6937 47.8166C31.0583 51.9963 28.4333 56.159 25.785 60.3597C23.6858 59.3735 21.6561 58.2961 19.6047 57.2227C19.259 57.0377 18.9109 56.6751 18.7703 56.3141C16.2875 49.9133 13.8298 43.5028 11.3906 37.085C11.1693 36.5027 10.8487 36.1287 10.2833 35.8703C9.2834 35.4131 8.31581 34.8857 7.2408 34.3405V58.6353C5.0302 57.6378 3.00374 56.4546 0.815759 55.4321C0.21485 55.1446 -0.00160638 54.8191 8.96571e-06 54.1366C0.0242392 40.8278 0.0169701 27.5383 0.0177778 14.2271Z" fill="#CEF0BE"/>
<path d="M78.6699 39.5531C82.0702 39.6412 84.7161 41.7807 85.0344 45.5097C85.4043 63.5612 62.9639 67.7433 50.5403 75.4485C50.5403 62.0888 50.5443 48.7436 50.5273 35.3847C50.5273 34.8177 50.7099 34.5407 51.2122 34.2863C58.3068 30.693 65.3885 27.0754 72.4734 23.4643C74.0274 22.6728 75.6468 22.1025 77.4018 21.9652C87.3782 21.8392 83.4392 35.1957 78.6707 39.5523L78.6699 39.5531ZM57.7334 61.0655C63.9573 57.7605 70.7151 55.1945 76.305 50.846C76.9924 50.2976 77.4487 49.5206 77.569 48.6063C77.9971 45.4928 74.2463 47.2502 72.7383 47.9109C67.8487 50.3372 62.9857 52.8183 58.1211 55.2947C57.9515 55.3811 57.752 55.6194 57.7496 55.7906C57.7221 57.5166 57.7326 59.2434 57.7326 61.0655H57.7334ZM57.7382 46.281C63.4202 43.3322 69.4543 40.8721 74.6751 37.1374C75.9957 36.2457 77.3389 33.015 74.5395 33.5747C73.6276 33.7904 72.7125 34.0892 71.8757 34.506C67.2534 37.0235 62.0674 39.0184 57.7544 41.8784C57.7269 43.3201 57.7374 44.7618 57.7374 46.281H57.7382Z" fill="#4FC976"/>
<path d="M76.8193 16.0281C66.7484 21.1503 56.617 26.1288 46.53 31.2188C46.0736 31.4473 45.7005 31.4683 45.2312 31.2802C42.7274 30.2778 40.2164 29.2949 37.6964 28.3354C37.2498 28.1658 37.1173 27.9606 37.1577 27.4809C37.5349 21.58 38.4088 15.6686 38.4516 9.76375C37.3701 3.54709 28.4591 5.65673 24.2398 7.37869C22.0761 8.18152 13.7586 12.194 18.318 14.5985C16.3174 15.7179 14.2432 16.6621 12.1974 17.6935C11.9583 17.8098 11.5997 17.8712 11.3655 17.7799C7.45718 16.4497 1.64274 12.2005 5.12866 7.75426C13.7086 -1.80132 35.2864 -2.14216 45.6577 4.63018C50.9076 8.09267 48.4159 14.8408 48.789 20.1003C54.2594 17.4318 59.6603 14.6752 65.1032 11.9582C65.5272 11.745 65.877 11.711 66.3317 11.892C69.8265 13.3046 73.3286 14.5912 76.8193 16.0281Z" fill="#CEF0BE"/>
<path d="M114.251 48.6233V54.3941H95.2778V28.3677H114.062V34.1385H99.0117V38.7027H112.817V43.9081H99.0117V48.6233H114.25H114.251Z" fill="#EDF3E5"/>
<path d="M118.022 28.3677H123.265L135.26 45.0776H136.807V28.3677H140.579V54.3941H135.298L123.341 37.6842H121.757V54.3941H118.024V28.3677H118.022Z" fill="#EDF3E5"/>
<path d="M164.492 48.6233V54.3941H145.519V28.3677H164.303V34.1385H149.252V38.7027H163.058V43.9081H149.252V48.6233H164.491H164.492Z" fill="#EDF3E5"/>
<path d="M179.428 46.2463H171.997V54.3933H168.263V28.3677H180.183C185.425 28.3677 189.424 32.2154 189.424 37.307C189.424 41.1547 187.161 44.2853 183.766 45.605L189.763 54.3933H185.011L179.428 46.2463H179.428ZM171.997 40.4755H180.069C183.577 40.4755 185.501 39.2688 185.501 37.307C185.501 35.3452 183.577 34.1385 180.069 34.1385H171.997V40.4755Z" fill="#EDF3E5"/>
<path d="M218.919 39.3062V54.3935H215.939V47.3022C213.94 52.0545 210.508 54.8458 205.453 54.8458C197.607 54.8458 191.686 49.0371 191.686 41.3803C191.686 33.7236 197.607 27.9148 205.453 27.9148C211.752 27.9148 216.92 31.6487 218.315 36.8162H213.751C212.053 35.0054 209.036 33.7987 205.453 33.7987C199.833 33.7987 195.608 37.0423 195.608 41.3803C195.608 45.7183 199.833 48.9619 205.453 48.9619C209.941 48.9619 213.638 47.3022 215.223 44.8509H205.717V39.3062H218.919Z" fill="#EDF3E5"/>
<path d="M228.65 46.6615L218.315 28.3677H222.728L229.102 39.0047H231.705L238.079 28.3677H242.756L232.421 46.6615V54.3941H228.649V46.6615H228.65Z" fill="#EDF3E5"/>
<path d="M239.626 51.1127C239.626 49.0378 241.437 47.416 243.813 47.416C246.19 47.416 248 49.0378 248 51.1127C248 53.1876 246.228 54.7715 243.813 54.7715C241.399 54.7715 239.626 53.1876 239.626 51.1127Z" fill="#EDF3E5"/>
</svg>
